- 
http://www.Speed.Cd      fast  and The Hottest Private Tracker on the net

Please Seed back to make the speed Faster!!!

------------------nfo--------------------------
-[img]http://img811.imageshack.us/img811/3530/super8bd570x734.jpg[/img]


[color=blue][size=5][b]Super.8.2011.BDRip.XVID.AC3.HQ.Hive-CM8[/b][/size][/color]


[b]Thx Hive

CM8 Doing It Right The First Time :D


Source: Bluray

Video: 720x304 @bitrate 1700 2pass
Audio: English DTS to AC3 5.1 @384
Sample: Yes, included
Subs: Yes, english in srt /subs[/b]
 
http://www.imdb.com/title/tt1650062/


General
Complete name                  : Super.8.2011.BDRip.XVID.AC3.HQ.Hive-CM8.avi
Format                         : AVI
Format/Info                    : Audio Video Interleave
File size                      : 1.63 GiB
Duration                       : 1h 51mn
Overall bit rate               : 2 093 Kbps
Writing application            : Nandub v1.0rc2
Writing library                : Nandub build 1853/release

Video
ID                             : 0
Format                         : MPEG-4 Visual
Format profile                 : Advanced Simple@L5
Format settings, BVOP          : 1
Format settings, QPel          : Yes
Format settings, GMC           : No warppoints
Format settings, Matrix        : Default (H.263)
Muxing mode                    : Packed bitstream
Codec ID                       : XVID
Codec ID/Hint                  : XviD
Duration                       : 1h 51mn
Bit rate                       : 1 700 Kbps
Width                          : 720 pixels
Height                         : 304 pixels
Display aspect ratio           : 2.40:1
Frame rate                     : 23.976 fps
Color space                    : YUV
Chroma subsampling             : 4:2:0
Bit depth                      : 8 bits
Scan type                      : Progressive
Compression mode               : Lossy
Bits/(Pixel*Frame)             : 0.324
Stream size                    : 1.33 GiB (81%)
Writing library                : XviD 1.2.1 (UTC 2008-12-04)

Audio
ID                             : 1
Format                         : AC-3
Format/Info                    : Audio Coding 3
Mode extension                 : CM (complete main)
Codec ID                       : 2000
Duration                       : 1h 51mn
Bit rate mode                  : Constant
Bit rate                       : 384 Kbps
Channel(s)                     : 6 channels
Channel positions              : Front: L C R, Side: L R, LFE
Sampling rate                  : 48.0 KHz
Bit depth                      : 16 bits
Compression mode               : Lossy
Stream size                    : 307 MiB (18%)
Alignment                      : Split accross interleaves
Interleave, duration           : 42 ms (1.00 video frame)
Interleave, preload duration   : 500 ms


Plot:
During the summer of 1979, a group of friends witness a train crash and
investigate subsequent unexplained events in their small town.


Cast:
Joel Courtney     ...    Joe Lamb
Riley Griffiths   ...    Charles
Elle Fanning      ...    Alice Dainard
Kyle Chandler     ...    Jackson Lamb
Amanda Michalka   ...    Jen Kaznyk


[img]http://img690.imageshack.us/img690/176/s8s8.png[/img]
[img]http://img193.imageshack.us/img193/6918/s8s8s8.png[/img]
[img]http://img827.imageshack.us/img827/8853/58754877.png[/img]
[img]http://img545.imageshack.us/img545/3644/s8s8s8s8.png[/img]
[img]http://img850.imageshack.us/img850/5981/s8s8s8s8s8.png[/img]
[img]http://img542.imageshack.us/img542/1744/s8s8s8s8s8s8.png[/img]



Greetz

ViSiON,SiC,SANTi,3LT0N,YanKeeS,MAGNET,THC,T0XiC,LKRG,FANTASIA-PLAY,FANTASIA-M,FLAWL3SS,
D2U,WBZ,BHRG,NOVA,Vik,Rapeseed,SAFC,goldadvance,MEMORY100,KaN1vE,Unevano,Pinnz,Wayne
Mr Hive,cedrict wink,and all P2P groups
Great Work Guys :D

LOOKING FOR ANYTHING YOU WANT TO LOOK AND SOUND BETTER

CM8@hushmail.com